<?xml version="1.0" standalone="no"?><!DOCTYPE svg PUBLIC "-//W3C//DTD SVG 1.1//EN"   "http://www.w3.org/Graphics/SVG/1.1/DTD/svg11.dtd"><svg width="864pt" height="864pt" viewBox="0 0 864 864" version="1.1"    xmlns="http://www.w3.org/2000/svg" xmlns:xlink="http://www.w3.org/1999/xlink">  <defs>  </defs><g id="Group ID: 1">
<g id="Group ID: 2">
   <path id="Path0" stroke-width="0.7" stroke="#000000" stroke-opacity="1" fill="#000000" fill-opacity="1" fill-rule="evenodd" stroke-linecap="round" stroke-linejoin="round" d="M596.7,757.6 C596,759.5 592.8,769.4 589.3,776.9 587.9,780 586.6,782.4 585.2,784.2 585,784.5 584,786 582.9,786.8 582.5,787.1 581.7,787.7 580.5,787.8 578.8,787.9 575.7,787.1 572.5,785.1 572,784.8 567.1,781.9 564.8,776.8 563.5,773.8 563.4,771.6 563.6,768.7 563.7,766.2 564.3,762.2 564.9,758.7 565.4,756.2 566.5,751.2 568.3,743.7 568.3,743.6 568.3,743.4 568.4,743.3 568.4,743.2 568.4,743.1 568.4,743 568.5,742.8 568.5,742.7 568.5,742.6 568.5,742.6 568.7,741.4 568.7,741.4 568.8,741.3 568.9,740.7 568.7,740.4 568.6,740.2 568.4,740 568.1,739.9 568.1,739.9 567.8,740 567.8,740 567.8,740 567.5,740.1 567.5,740.1 566.7,741 565.8,741.9 564.3,743.8 561.7,747.2 558.1,753.1 554.7,758.1 554.1,759 550.8,763.9 548.2,766.7 547.8,767.1 547.1,767.7 546.6,768.2 546.4,768.4 546.1,768.6 545.9,768.8 545.3,769.2 544.8,769.5 544.3,769.8 543.5,770.2 542.5,770.5 540.6,770.4 539.3,770.3 537.5,769.9 535.7,768.9 533.7,767.7 532.9,766.5 532.3,765.8 529.4,772.8 525.3,782.1 520.9,788.3 518.2,792.2 515.9,794.2 513.5,794.2 512.4,794.3 510.2,793.9 508.3,792.9 508,792.7 506.6,791.9 505.3,790.5 503.9,788.9 502,786.2 500.6,781.1 498.8,774.9 497.9,767.1 497.8,755.5 497.8,753.4 497.8,750.7 497.8,748.6 497.9,746.8 497.9,744.4 498,742.7 498.2,738.8 498.6,734.9 499,731 499.2,729.3 499.5,727.1 499.8,725.4 500,723.8 500.4,721.6 500.7,720 501,718.4 501.4,716.3 501.7,714.7 504.4,701.1 506.8,693.7 509.5,684.9 509.7,684.1 509.8,683.7 509.9,683.6 510,683 510.1,683 510.1,682.3 510.1,682.3 509.9,682 509.9,682 509.9,682 509.6,681.8 509.6,681.8 509.4,681.7 509.3,681.7 508.9,681.7 508.8,681.7 508.7,681.8 508.6,681.8 508.4,681.8 508.3,681.8 508.2,681.8 507.3,681.9 506.8,681.9 506.7,681.9 502.3,682.3 496.9,683 489,684 488.9,683.2 489,682.8 489.4,681.8 489.6,681.1 489.9,680.5 490.3,679.9 490.3,679.8 490.9,678.9 491.6,678.4 491.8,678.2 492.1,678 492.3,678 492.7,677.8 493.3,677.7 493.7,677.6 496.9,677 505.7,676.5 509.6,676 510.7,675.9 511.3,675.8 511.5,675.8 512.7,675.5 513.4,674.3 513.5,674.2 513.8,673.2 514,672.7 514,672.6 514.2,671.8 514.6,670.5 515.4,668.5 517.8,662.5 520.3,657.2 523,652.7 523.8,651.4 524.5,650.4 524.9,649.9 525.5,649.1 525.7,648.9 526.5,648.3 526.7,648.2 526.9,648.1 527.1,648.2 527.4,648.2 528,648.4 528.8,648.8 530.1,649.5 531.3,650.4 532.3,651.4 532.8,651.9 533.1,652.1 533.2,652.7 533.3,653.5 533.2,654.6 532.7,656.4 531.4,661.1 527.8,668.3 526.5,671.3 526.1,671.9 526,672.4 525.9,672.6 525.9,672.6 525.9,672.7 525.9,672.8 525.9,672.9 525.8,673 525.8,673.1 525.7,673.5 525.9,673.8 526.2,674.4 526.2,674.4 526.4,674.5 526.4,674.5 526.4,674.5 528.9,674.4 528.9,674.4 537,673.9 541.7,673.2 552.1,673 552.1,673 552.1,672.8 552.1,672.8 552.9,673.4 553.5,674 554,674.6 554.5,675.3 554.5,675.5 554.7,676.3 553.8,676.4 549.6,677.2 546.3,677.7 543.7,678 540.4,678.4 537.9,678.7 532.7,679.2 529.5,679.6 528.2,679.8 527.6,679.8 526.9,680 526.4,680.1 526.1,680.1 525.8,680.1 525.6,680.2 525.3,680.3 524.6,680.5 524.3,680.8 524.2,680.9 524,681 523.9,681.1 523.8,681.3 523.6,681.5 523.5,681.6 523.4,681.8 523.3,682.1 523.2,682.3 523.2,682.3 522.8,683.9 522.8,683.9 522,687 520.9,691.8 519.5,699.7 519.1,701.5 515.7,719.3 514.1,735.5 513.7,739.3 513.4,742.5 513.3,745 513.2,747 513.1,751.7 513.2,758.3 513.2,760.5 513.2,773.7 514.2,780.2 514.4,781.8 514.6,782.8 514.8,783.4 515,783.9 515,784.1 515.5,784.5 515.5,784.5 515.7,784.6 515.7,784.6 516.2,784.5 516.5,784.2 516.8,783.8 517.1,783.5 517.8,782.6 518.3,781.7 521.7,776.3 526.9,764.8 529.5,759.1 529.2,756.9 529.3,747.9 532.8,737.6 534.8,731.5 538.8,722.6 546.6,715.9 547.5,715.2 549.2,713.9 551.5,712.5 552.5,711.9 553.2,711.2 555.2,711.2 556.4,711.2 559.3,711.7 563,713.3 564.5,713.9 569.4,716 571.6,718.8 572.2,719.5 572.5,720.2 572.6,720.8 572.7,721.1 572.7,721.4 572.6,721.8 572.6,721.8 572.7,722.1 572.7,722.1 572.7,722.1 573,722.3 573,722.3 573,722.3 573.3,722.3 573.3,722.3 573.3,722.3 573.4,722.1 573.4,722.1 573.9,720.7 574.6,718.3 575,717.3 575.2,716.6 575.7,715.9 576.2,715.4 576.3,715.3 576.9,714.8 577.7,714.7 578.6,714.6 579.4,714.5 580.1,714.6 581.7,714.8 584.7,715.8 587.3,718.3 588.1,719 588.7,719.7 589.1,720.4 589.6,721.2 589.7,721.5 589.8,722.6 587.3,732.3 580.7,759.2 579.8,771.7 579.6,774.1 579.7,775.7 580,776.7 580.2,777.1 580.2,777.3 580.7,777.6 580.7,777.6 581.2,777.5 581.2,777.5 581.7,777.1 581.9,777 582.3,776.5 582.6,776.1 583.4,774.9 584.3,773.3 587,768.4 591.2,758.1 593.3,752.9 594.9,748.9 597.5,743.8 598.6,739.6 599.1,737.7 599.2,735.1 599.5,733.1 599.6,732.4 600.6,725.3 602.2,717.5 602.5,716.4 602.9,714.4 603.6,711.8 604.1,710.2 604.1,710 604.9,708.3 606.4,708.4 606.9,708.5 608.2,708.9 608.4,708.9 610.7,709.6 612.3,710.4 613.7,711 614.8,711.8 615.7,712.6 616.3,713.2 616.8,713.7 617,714.5 617.2,715.1 617.1,716.2 616.8,717.7 616.6,719.1 616.1,721.2 615.1,724.7 615.1,724.7 612.7,733.1 612.7,733.1 611.6,737.1 611,740.2 610.8,742.4 610.7,743.2 610.3,744.9 611.8,746.3 612.3,744.8 612.6,743.8 613.6,741.4 614.7,739.1 615.8,736.8 617,734.6 617.9,732.7 620.6,727.8 623.9,722.5 627.4,716.6 630.9,711.5 634.4,707 636.6,704.2 638.6,702 640.4,700.4 640.5,700.2 642.6,698.3 644.1,697.9 644.7,697.8 645.6,697.8 646.6,698.1 648.6,698.6 650.4,699.6 652.1,701.1 654.4,703.1 655.7,705.3 656.1,707.6 656.1,708.2 656.1,709.7 655.8,711.8 655.4,715 654.5,718.7 653.4,722.3 651.1,730 645.8,743.5 643.6,752.9 642.8,756.2 642.3,759.1 642.1,761.8 642.1,762.3 642.1,763 642.1,763.5 642.1,763.9 642.1,764.6 642.1,765.1 642.1,765.6 642.2,766.2 642.2,766.7 642.2,766.7 642.5,767 642.5,767 642.6,767 642.8,767.2 642.9,767.2 643,767.3 643.2,767.3 643.4,767.3 643.4,767.3 643.8,767.2 643.8,767.2 644.5,766.6 645.7,765.7 647.4,763.8 647.8,763.4 649.2,761.7 650.8,759.5 652.2,757.5 653.2,755.8 654.1,754.5 656.3,750.8 659.3,745.4 663.1,738.3 664.7,735.4 666.1,733 667.3,731.2 667.7,730.6 668.3,729.8 668.7,729.2 668.8,729 669,728.6 669.2,728.4 669.5,727.9 669.9,727.6 670.1,727.4 670.2,727.4 670.4,727.3 670.5,727.2 670.5,727.2 670.9,727.2 670.9,727.2 670.9,727.2 671.2,727.4 671.2,727.4 671.6,727.8 671.8,728.1 671.8,729 671.9,729.9 671.9,731.3 670.9,733.1 670.6,733.5 670.3,734 670,734.4 669.7,735 669.2,735.8 668.9,736.5 668.9,736.5 662.2,749.4 662.2,749.4 661.2,751.3 656.2,761 651.3,768.1 649.1,771.5 647,774 645,775.6 643.8,776.7 642.6,777.3 641.4,777.3 639.7,777.3 638,776.6 636.7,775.9 636,775.5 634.2,774.4 632.5,772.6 632.1,772.3 630.6,770.8 629.3,768.5 628.7,767.4 628.2,766.4 628,764.5 628,763.5 627.8,761.1 628.2,757.7 628.6,753.9 629.3,750 631.6,742.5 634,735.1 638.9,722.6 639.3,721.6 640.6,718.3 641.4,715.9 641.6,714.4 641.6,714.1 641.9,713.4 641.5,712.8 641.1,712 640.4,711.9 639.9,711.8 639.3,712 639.1,712 638.6,712.3 638.4,712.5 638.1,712.8 637.8,713 636.2,714.4 633.9,717.5 632.5,719.6 630.1,722.9 624.9,730.7 619,742.8 618.5,743.8 612.7,755.4 610.9,764.5 610.4,766.6 610.3,768.4 610.3,769.8 610.3,770.3 610.4,770.9 610.5,771.3 610.5,771.7 610.7,772.2 610.8,772.5 610.7,772.6 610.7,772.7 610.6,772.8 610.6,772.9 610.5,773 610.4,773 610.3,773.1 610,773.3 609.9,773.4 609.5,773.5 608.4,773.7 607,773.6 605.7,773.4 602.2,772.6 599.5,770.1 598.7,769.4 596.7,767.5 596.4,764.1 596.3,763.1 596.5,760.5 596.7,757.6 Z M544.1,756.1 C544.2,757.3 544.2,757.6 544.6,759.1 544.6,759.1 544.9,759.5 544.9,759.5 544.9,759.5 545.2,759.6 545.2,759.6 546,759.5 546.2,759.4 546.8,759 547.5,758.5 548.9,757.2 550.7,755 554.5,750.4 558.9,743.7 561.9,738.5 563.8,735.4 565.1,732.9 565.8,731.1 565.9,731 566.8,729.1 567,727.4 567,726.8 567,725.9 566.7,724.7 566.5,723.5 566.2,723 565.4,721.4 565.1,721.2 564.9,721 564.4,720.8 564.2,720.7 563.9,720.7 563.7,720.6 562.7,720.5 561.6,720.4 560.5,720.5 560.5,720.5 559.9,720.6 559.3,720.8 559.1,721 558.8,721.1 558.6,721.2 558.5,721.3 557.4,722.2 556.5,723.3 553.5,726.9 550.4,732.8 547.8,739.7 547.4,740.7 547,742 546.7,743 546.3,744 545.9,745.2 545.7,746.2 545.4,747.1 545.1,748.4 544.9,749.3 544.6,751 544.2,752.7 544.1,756.1 Z " />
   <path id="Path1" stroke-width="0.7" stroke="#000000" stroke-opacity="1" fill="#000000" fill-opacity="1" fill-rule="evenodd" stroke-linecap="round" stroke-linejoin="round" d="M345,168.3 C341.7,168 339.5,166.2 337.9,163.5 332.9,155.2 329.5,146.1 328.6,136.4 327.2,119.9 327.9,103.5 330.6,87.1 333.1,72.3 337.9,58 349.5,47 354.5,42.5 362.5,41.8 368.9,46.1 372.1,48.6 374.3,57.5 372.5,62.3 372.1,63.9 371.2,64.8 369.5,64.8 367.7,64.6 366.8,63.6 366.6,61.9 366.6,60.9 366.6,59.8 366.8,58.7 366.8,54.6 365.7,51.1 362.9,47.3 357.9,51.4 354.1,56.4 352.2,62.1 347,76.7 343.4,91.5 344,107.2 344.5,117.6 344.3,127.7 345.2,138 346.1,146.1 347.2,161.2 353.1,160.9 360.7,160.5 363.9,153 365.4,148.7 369.8,134.5 371.6,120.1 373.6,105.4 373.7,102.8 367.5,102.4 365.2,102.1 361.8,101.7 357.9,102.2 354.8,100.1 355.2,98.3 356.3,98.1 357.3,98 363.9,97.8 370.5,97.2 377.3,98.1 380.3,98.5 381.2,99.9 381,102.8 380,118.3 377.3,133.4 373.6,148.2 373.4,149.8 372.5,151.6 371.8,153 365.4,166.7 360,169.8 345,168.3 Z " />
   <path id="Path2" stroke-width="0.7" stroke="#000000" stroke-opacity="1" fill="#000000" fill-opacity="1" fill-rule="evenodd" stroke-linecap="round" stroke-linejoin="round" d="M402,162.3 C399,161.6 397.6,159.3 396.3,156.6 394.4,152.3 393.8,147.7 392.9,143.1 391,130.8 389.6,118.5 389.9,108 389.7,93 391.2,80.3 395.1,68 396.1,64.5 397.6,61.1 399.5,58.1 405.1,48.6 416.8,47.9 424,56.5 429.5,63.4 430.5,71.6 430.7,80 431.1,94.4 428.6,108.5 425.6,122.6 423.2,133.4 419.3,144 415.9,154.5 414,160.7 408.3,163.7 402,162.3 Z M409.5,155.5 C415.9,147.3 418.8,139 420.7,130.6 425,113 427,95.1 426.3,77 426.1,72.7 425.2,68.6 423.8,64.5 422.7,61.5 420.9,58.8 419,56.3 417.7,54.5 415.9,53.8 414,54.3 412.2,54.7 412,56.5 411.8,57.9 411.8,57.9 411.3,59.9 411.3,59.9 406.5,84.1 404,108.5 405.6,133.3 406.1,140.4 406.8,147.5 409.5,155.5 Z " />
   <path id="Path3" stroke-width="0.7" stroke="#000000" stroke-opacity="1" fill="#000000" fill-opacity="1" fill-rule="evenodd" stroke-linecap="round" stroke-linejoin="round" d="M450.4,154.6 C447.7,153.9 446.5,151.9 445.4,149.5 443.6,145.7 443.1,141.6 442.3,137.4 440.6,126.5 439.3,115.5 439.6,106.2 439.5,92.8 440.7,81.6 444.2,70.6 445.2,67.4 446.5,64.4 448.2,61.7 453.1,53.3 463.6,52.7 469.9,60.3 474.9,66.5 475.8,73.8 476,81.3 476.3,94.1 474.1,106.6 471.4,119.2 469.3,128.9 465.8,138.2 462.8,147.6 461.1,153.1 456,155.8 450.4,154.6 Z M457.1,148.5 C462.8,141.2 465.3,133.8 467.1,126.3 470.9,110.6 472.6,94.7 472,78.6 471.9,74.8 471.1,71.1 469.8,67.5 468.8,64.8 467.3,62.4 465.5,60.2 464.4,58.6 462.8,57.9 461.1,58.4 459.5,58.7 459.3,60.3 459.2,61.6 459.2,61.6 458.7,63.3 458.7,63.3 454.4,84.9 452.2,106.6 453.6,128.7 454.1,135 454.7,141.4 457.1,148.5 Z " />
   <path id="Path4" stroke-width="0.7" stroke="#000000" stroke-opacity="1" fill="#000000" fill-opacity="1" fill-rule="evenodd" stroke-linecap="round" stroke-linejoin="round" d="M493.7,152.7 C491.2,152.3 491.2,149.7 491.1,147.7 489.4,133.1 490.1,118.4 489.7,100.9 488.9,92.8 489.7,82.1 490.1,71.2 490.3,67.4 490.8,63.5 492.2,59.8 493.4,56.5 494.3,55.9 497,57.8 499.1,59.2 500.5,58.8 502.5,57.9 506.6,56.2 510.1,57 513.6,59.8 519,64.3 523.2,69.5 524.4,76.7 526.3,86.8 526.9,97 526.3,107.2 525.7,118.2 520.5,127.5 515.1,136.7 511.9,142.4 506.9,146.8 502.7,151.6 500.2,154.5 496.7,152.8 493.7,152.7 Z M503.6,140.3 C511.5,130 517.1,119.8 519.1,108 520.7,99.3 520.5,90.6 519.8,81.8 519.1,75.7 518.2,69.7 514.2,64.6 510.5,59.8 507.8,59 502.2,61.6 499.8,62.9 498.8,64.4 499.1,67.4 502.4,88.6 503.8,109.9 503,131.4 502.9,133.9 502.6,136.5 503.6,140.3 Z " />
   <path id="Path5" stroke-width="0.7" stroke="#000000" stroke-opacity="1" fill="#000000" fill-opacity="1" fill-rule="evenodd" stroke-linecap="round" stroke-linejoin="round" d="M554.4,157.8 C552.9,157.5 551.5,156.6 549.8,157.7 546.2,159.9 542.7,157.8 539.1,157.3 537.4,157.1 536.9,155.8 536.7,154.3 536.4,151.5 536.2,149 536,146.3 535.7,121.1 536.2,96.1 538.6,71 539.1,64.2 540.1,57.4 542.5,50.9 546.4,50.9 548.3,53.3 550.3,56 552.9,55 554.2,52.6 556.4,51.1 563.2,46 567.3,46.5 572.6,53.1 576.8,58.6 578.2,64.5 576.8,71.5 574.4,82 570.4,91.7 562.2,99.2 561.4,99.9 560.8,100.5 560,101.6 565.9,105.5 571.9,109.4 574.8,116 579.4,126.4 580.9,137.1 575.5,147.8 571.2,156.6 563.9,160.2 554.4,157.8 Z M548.9,99.3 C562,89.8 569.2,78.1 571.6,63.3 571.7,61.8 571.6,60.4 571.4,58.9 570.7,52.9 568.5,51.4 563.2,54.1 555.4,58.4 548.1,63.1 549.3,74.2 549.8,78.4 549.1,82.7 548.9,86.9 548.9,86.9 548.9,99.3 548.9,99.3 Z M557.8,152.6 C562,150.7 565.3,147.6 567.6,143.7 573.3,134 572.6,124.2 569,114.1 566.1,105.5 559.7,105.1 552.9,107.5 549.8,108.5 548.4,110.4 548.6,113.8 548.9,119.2 548.8,124.8 548.8,130.3 548.8,130.3 549.5,130.3 549.5,130.3 549.5,136.1 549.3,141.7 549.5,147.5 549.6,153.1 552.5,154.8 557.8,152.6 Z " />
   <path id="Path6" stroke-width="0.7" stroke="#000000" stroke-opacity="1" fill="#000000" fill-opacity="1" fill-rule="evenodd" stroke-linecap="round" stroke-linejoin="round" d="M595.1,166.1 C590,166.1 588.9,165.1 589.8,160.1 590.8,154.5 592.1,149.2 593.7,143.8 597.8,129.9 599.8,115.5 603.1,101.3 603.7,99.3 603.3,97.9 602.4,95.9 597.1,85.4 591.9,74.9 588.2,63.7 587.8,62.4 587.3,61.2 587.3,59.9 587.3,58.1 588.5,57.8 589.8,58.5 591.6,59.6 592.6,61.2 593.5,62.9 596.9,69.5 600.3,76.3 603.9,82.9 604.4,84.1 604.6,85.8 606.7,87 609.2,81.1 611.5,75.6 613.7,70.1 616.2,64.2 619.5,58.7 623.3,53.5 624.4,52.1 625.4,50.6 627.6,51.5 629.5,52.4 629.5,54.2 629.3,55.8 628.8,63.7 626.5,71 624.7,78.4 618.6,105.4 611.3,132.1 603.1,158.5 603.1,158.5 602.6,160.2 602.6,160.2 601.2,166.1 601.2,166.1 595.1,166.1 Z " />
   <path id="Path7" stroke-width="0.7" stroke="#000000" stroke-opacity="1" fill="#000000" fill-opacity="1" fill-rule="evenodd" stroke-linecap="round" stroke-linejoin="round" d="M643.3,170 C638.3,170.3 636.5,168.9 636.5,163.9 636.2,154.5 635.3,145 635.6,135.6 635.6,135.6 637.8,79.1 637.8,79.1 637.9,71.6 639,64.1 641.5,57 642.9,52.9 643.6,52.3 647.6,54 649.9,54.8 652,54.7 654.3,54.3 660,53.2 665.7,52.5 671.4,51.8 672.9,51.6 674.7,51.6 674.8,53.8 675,55.4 673.9,56.1 672.7,56.4 669.5,57.5 666.1,58.4 662.7,59.3 660.8,59.8 658.6,60.2 656.5,60.7 653.4,61.3 652,62.9 652.2,66.4 652.6,76.8 652.4,86.9 652.6,97.3 652.6,101.5 652.7,101.5 656.8,100.6 660.4,99.9 664,99 667.7,99.4 669.1,99.4 670.9,99.4 671.1,101.5 671.1,103.1 669.8,103.7 668.6,104 664.9,105.3 660.9,106.9 657,107.6 653.3,108.3 652,110.3 652,113.8 652,119.9 651.7,126.1 651.8,132.4 651.8,142 651.1,151.6 653.6,161.4 660.9,160.4 668.1,159.1 675.2,160.9 675.9,161.1 676.8,161.6 676.8,162.7 676.6,163.6 675.9,163.6 675.4,163.6 667,164.1 659,166.2 651,168.6 648.5,169.3 645.8,169.6 643.3,170 Z " />
   <path id="Path8" stroke-width="0.7" stroke="#000000" stroke-opacity="1" fill="#000000" fill-opacity="1" fill-rule="evenodd" stroke-linecap="round" stroke-linejoin="round" d="M396.2,748.2 C394.6,751.9 392.9,755.1 391.3,757.9 389.5,760.9 387.6,763.8 385.4,765.9 384.4,766.9 383.2,767.7 381.9,768.1 381.3,768.3 380.3,768.6 378.7,768.5 377.7,768.4 376.8,768.2 376,767.9 373.7,767 372,765.2 370.9,763.1 368.9,759.4 367.9,754.3 367.7,746.9 367.6,745.3 367.6,743.8 367.7,740.7 367.7,739.2 367.8,738.5 367.8,738.4 367.8,737.8 367.8,737.7 367.4,737.1 367.4,737.1 367.2,736.9 367.2,736.9 367.2,736.9 366.9,736.9 366.9,736.9 366.9,736.9 366.6,737.1 366.6,737.1 366.3,737.4 366.3,737.5 366.1,737.9 365.9,738.4 365.7,738.8 365.6,739.2 365.2,740.2 365,740.9 364.9,741.1 361.8,750 356.6,761.1 353.9,765.8 352.4,768.5 350.9,770.4 349.7,771.4 349.6,771.5 348.9,772 348.2,772.1 346.1,772.1 344.1,771.8 342.2,771.2 341.4,771 337.2,769.8 335.3,766.5 334.8,765.7 334.5,764.7 334.1,762.7 333.9,761.8 333.2,758 333,753.2 332.9,748.9 333,738.6 337,725 337.5,723.4 338.8,719.2 340.8,714.8 342.6,710.8 343.4,709.7 345.1,707.1 346,707.3 346.8,707.4 348.4,707.9 348.5,708 350,708.5 351,709.1 351.9,709.5 352.5,710 352.8,710.5 353,710.7 353,710.9 353,711.2 352.5,712.4 352,713.6 351.2,716 350.9,717 350.6,718.3 350.3,719.3 350.2,719.7 349.2,723.6 348.4,727.2 346.3,736.8 345.5,744.5 345.2,748.9 345.2,749.5 344.7,756.4 346,760.1 346.3,761.2 346.8,762 347.4,762.5 347.9,762.9 348.1,762.9 348.9,763 348.9,763 349.3,762.8 349.3,762.8 349.7,762.4 349.9,762.2 350.4,761.5 350.6,761.2 350.9,760.8 351,760.5 352.2,758.3 354.1,754.4 356.2,749.3 360.6,738.9 367,721.1 369.8,714.1 371.3,710.3 372.1,708.2 372.3,707.8 372.4,707.6 372.6,706.9 373,706.4 373,706.4 373.1,706.4 373.1,706.4 373.1,706.4 373.1,706.5 373.1,706.5 374.8,706 377.6,706.5 379.1,706.9 381.2,707.4 382.7,708.2 383.4,709.3 383.9,710 383.7,710.7 383.6,711.1 383.5,711.9 383.4,712.3 383.4,712.4 383.1,714 383,714.8 383,715 381,726.5 379.8,736.1 379.4,743.9 379,749.3 379.2,753.3 379.9,756.1 380,756.4 380.1,756.9 380.2,757.2 380.3,757.5 380.5,757.8 380.6,758.1 381,758.7 381.1,758.7 381.7,759.1 381.7,759.1 382.4,759.3 382.4,759.3 382.9,759.2 383.2,759.1 383.7,758.6 383.9,758.5 384.6,757.8 385.4,756.8 388.5,752.8 392.7,744.6 395.3,739.1 396.4,736.8 397,735.5 397,735.4 397,735.4 397.9,733.4 397.9,733.4 398.2,732.9 398.2,732.7 398.2,732.1 398.3,731.6 398.4,731.3 398.4,731.2 399.2,725.3 400.2,719.9 401.2,715.1 401.8,712.4 402.2,710.5 402.5,709.4 402.7,708.8 403,707.9 403.2,707.3 403.4,706.9 403.6,706.3 403.8,705.9 404.5,705.9 405.5,706 407.2,706.4 407.4,706.5 409.7,707.2 411.2,708 412.6,708.6 413.8,709.3 414.7,710.2 415.1,710.6 415.8,711.3 416,712.1 416.2,712.7 416,714 415.8,715.3 415,719.2 412.7,726.8 411.7,730.6 410.6,734.7 409.9,737.8 409.7,740 409.6,741.4 409.4,742.7 410.7,743.9 411,743.2 411.2,742.3 411.4,741.7 411.8,740.9 412.2,739.8 412.6,739 412.7,738.6 414.3,735.2 415.9,732.2 416.9,730.3 419.5,725.4 422.8,720.1 427.1,713 434.2,702.6 439.3,698 439.5,697.8 441.6,695.9 443.1,695.5 443.6,695.4 444.3,695.3 445.5,695.7 447.6,696.2 449.6,697.5 451,698.7 451.6,699.2 454.5,701.8 455,705.2 455.1,706 455,707.7 454.8,709.4 454.4,712 453.8,715.2 452.4,719.9 449.6,729.2 444.7,741.1 442.5,750.5 441.7,753.8 441.2,756.7 441.1,759.4 441,760.8 441,762.1 441.2,764.2 441.2,764.2 441.4,764.6 441.4,764.6 441.5,764.6 441.7,764.8 441.8,764.8 442,764.9 442.2,764.9 442.3,764.9 442.3,764.9 442.7,764.8 442.7,764.8 443.5,764.2 444.7,763.3 446.3,761.4 447.8,759.8 448.9,758.2 449.7,757.1 451.1,755.1 452.2,753.4 453,752.1 455.2,748.4 458.2,743 462,735.9 462.2,735.5 464.4,731.5 466.2,728.8 466.6,728.2 467.2,727.4 467.6,726.8 467.8,726.6 468,726.2 468.1,726 468.3,725.8 468.7,725.3 469.1,725 469.2,725 469.3,724.9 469.5,724.8 469.5,724.8 469.8,724.8 469.8,724.8 469.8,724.8 470.1,725 470.1,725 470.2,725 470.4,725.2 470.6,725.6 470.7,726 470.8,726.4 470.8,726.6 470.8,727.5 470.8,729 469.8,730.7 469.6,731.1 469.2,731.6 469,732 468.6,732.6 468.2,733.4 467.8,734.1 466.9,735.8 465.7,738.1 464.9,739.8 463.7,741.9 462.3,744.8 461.1,747 460.1,748.9 455.2,758.6 450.3,765.7 448.1,769.1 446,771.6 443.9,773.2 442.7,774.3 441.5,774.9 440.3,774.9 439.6,774.9 437.8,774.7 435.7,773.5 435,773.1 433.1,772 431.4,770.2 430.9,769.7 429.3,767.9 428.3,766.1 427.7,765 427.2,764 427,762.1 426.4,755.4 428.2,747.6 430.6,740.1 432.9,732.7 437.5,721.3 438.3,719.2 438.4,718.8 440.3,713.9 440.5,712 440.6,711.7 440.8,711 440.5,710.4 440.4,710.3 440.3,710.2 440.2,710.1 440.2,710 440.1,709.9 440,709.8 439.8,709.7 439.6,709.6 439.4,709.5 439.2,709.5 439,709.4 438.8,709.4 438.2,709.6 438.1,709.6 437.6,709.9 437.3,710.1 437,710.4 436.8,710.6 435.2,712 432.9,715.1 431.4,717.2 429.1,720.4 423.3,729.5 418,740.4 413.8,748.8 411.1,756 409.8,762.1 409.7,762.6 409.2,765.3 409.3,767.4 409.3,768.7 409.4,768.9 409.7,770.1 409.5,770.5 409.4,770.7 408.8,771 408.4,771.1 407.3,771.3 405.9,771.2 405.1,771.1 403.7,770.8 402.1,770.1 401.7,769.9 399.9,769 398.4,767.7 397.7,767 395.6,765.1 395.4,761.7 395.2,759.9 395.5,755.4 396.2,748.2 Z " />
   <path id="Path9" stroke-width="0.7" stroke="#000000" stroke-opacity="1" fill="#000000" fill-opacity="1" fill-rule="evenodd" stroke-linecap="round" stroke-linejoin="round" d="M396.7,670.7 C396,670.3 395.1,669.9 394.4,668.4 393.2,665.8 393.3,661.8 393.3,661.4 392.8,648.7 393.7,638.1 395.1,619.1 395.2,618.2 395.3,617 395.3,616.1 395.4,615.2 395.5,614 395.6,613.2 395.6,612.3 395.7,611.1 395.8,610.2 396.1,606.5 396.2,604.5 396.2,604.3 396.2,604.3 396.5,598.5 396.5,598.5 396.5,597.8 396.4,597.2 396.2,596.7 395.5,595.2 394,594.9 393,595 392.4,595 389.5,595.6 389.1,595.7 386.3,596.2 381.1,596.9 374.5,597 373.4,597 371.4,597 368.6,597 367.8,596.9 367.1,597.1 366.5,597.3 365.3,597.8 364.5,598.8 364.2,600.9 364.2,600.9 364,605.5 364,605.5 363.6,610.8 363.3,614.3 363.3,616.1 363.2,617.5 363.1,621 363.1,626.5 362.9,635 362,646.3 361.5,654.8 361,661.9 360.8,666.1 360.6,667.4 360.7,667.5 361,668.3 360.9,669.2 360.8,670.3 360.5,670.4 359.9,671.1 359.8,671.2 359.3,672.6 358.7,673.5 358,674.4 357.1,675.4 355.5,676.3 355.2,676.4 354.9,676.6 354.6,676.7 354.3,676.8 354,676.9 353.7,677 352.8,677.3 352,677.6 351.4,677.7 347.5,680.5 333.1,690.8 325.9,697.3 323.3,699.5 321.4,701.5 320,703.2 319.8,703.5 319.5,704 319.3,704.3 319.1,704.6 318.8,704.9 318.7,705.2 318.6,705.5 318.4,705.9 318.3,706.1 318.3,706.6 318.2,708.4 318.6,709.5 319,710.6 320.8,713.1 321,713.3 321.5,714.2 322.1,715.3 322.5,716.2 325.9,723.1 326.7,730.2 326.8,735 326.8,738 326.7,745.2 323.3,754.5 322.6,756.3 319.7,764.2 313.2,771.8 311.9,773.3 306.5,779.7 297.5,784.2 294.8,785.5 291.4,786.8 288,787.6 287.6,787.7 283.7,788.6 279.3,788.7 276.4,788.8 271.7,788.7 265.1,785.7 264.7,785.5 261.1,783.9 257.6,781.3 257.2,780.9 255.3,779.5 253.3,777.4 252.7,776.7 250.2,774.1 248.4,770.2 248.2,769.8 247.5,767.9 247,766 246.6,764.5 246.4,763 246.4,761.5 246.4,756.4 250.5,748.6 259.2,739.2 262.9,735.4 268.3,730.2 275,725.1 276.5,723.9 283.3,719.1 285.3,717.5 285.5,717.3 287.7,715.5 288.8,714.3 290.2,712.6 291.1,710.8 290.2,708.1 289.8,707 289.2,705.8 288,704.1 287.8,703.8 285.6,700.8 281.4,695.1 276.5,688.4 263.4,670.9 261.6,658.5 260.8,652.6 262.7,644.7 268.3,635.6 272.7,628.6 280.3,619.4 291.1,611.9 293.1,610.5 304.4,602.6 314.5,602.8 316.9,602.8 319.1,603.7 321,605.2 322.8,606.6 324.5,608.8 325.7,611.1 326.3,612.2 327.7,614.8 328.6,618.9 328.7,619.3 329.6,622.8 329.5,626.8 329.5,627.1 329.6,629.7 328.7,632.4 328.5,633.1 328.2,633.6 328,634.1 327.6,634.7 327.2,635.3 326.3,636.4 326.2,636.5 324.8,638.4 323.5,639.5 322.7,640.2 321.6,640.9 320.6,640.5 319.5,640 318.8,638 318.3,636.1 318,635 317.2,631.9 316.7,630.6 316.2,629.6 316.1,629.5 315.4,628.6 315.4,628.6 315.1,628.4 315.1,628.4 314.3,628.3 314,628.4 313.3,628.6 312.7,628.8 311.3,629.4 309.4,630.5 308,631.3 302.3,634.8 296.2,640.4 288.8,647.2 285.1,652.8 284.5,656.7 284.3,657.9 284.3,660.9 285.4,664.7 286.4,668 288.2,671.6 290.3,675 295.8,683.9 304.4,692.5 310.1,697.5 313.8,696.1 330.4,682 341.2,673.4 340.9,672.5 340.4,670.9 340.3,668.4 340.1,666 340,660.4 340.3,652.4 341.2,631.7 341.7,620.9 341.8,619.8 344.3,566.1 345.7,536.2 346.1,530.2 346.2,526.7 346.6,523.2 347.4,519.8 347.7,518.3 348.1,516.9 348.5,515.7 348.7,515.1 349,514.3 349.2,513.7 349.3,513.4 349.4,513 349.5,512.8 349.9,511.5 350.6,510.6 351.6,510 352.1,509.6 353.1,509.2 354.5,509.2 355,509.3 356.6,509.4 357.7,510.9 359.2,512.8 360,518.1 360.3,520 360.7,522 364.1,539.6 364.4,559.4 364.4,570.9 364.4,577.7 364.4,579.7 364.4,581.6 364.4,585.9 364.7,587.4 364.8,587.5 365,588.4 365.6,588.8 365.9,589.2 366.7,589.5 368,589.5 370,589.5 371.5,589.4 372.6,589.3 372.6,589.3 382,588 382,588 385.1,587.6 387.5,587.4 389.1,587.3 391,587.3 392.3,587.2 393,587.1 393.2,587 395,586.8 396.2,585.6 397.2,584.5 397.8,583 397.8,580.9 398,578.6 398.2,576.4 398.4,574.5 399.4,564.3 400.1,555.6 401.5,545.5 402,542.3 402.9,536 404.4,526.6 404.4,526.4 404.8,524 406.2,522.6 407.1,521.7 407.6,521.5 409.3,520.8 409.7,523.3 410.6,529.6 410.7,533.4 410.5,537.4 410.5,539.6 410.5,539.8 410.5,539.8 410,552.6 410,552.6 409.6,568.1 409,582.3 408.3,595 407.9,603 406.3,625.3 406.2,626.9 405.3,641.3 404.7,650.3 404.4,653.8 403.9,659.6 403.6,662.6 403.6,662.9 403.6,663.1 403.5,665.4 403.3,666.8 403.1,668 402.8,668.9 402.2,669.6 401.9,670 401.2,670.7 399.9,670.9 399.8,670.9 399,671.1 398.2,671 397.6,671 397.3,670.8 396.7,670.7 Z M302,738.2 C302.1,731.9 299.3,727.1 298.7,726 298.4,725.3 298.1,725 298,724.8 297.7,724.6 296.4,724 295.1,724.2 290.5,725 278.8,733.7 270.5,742.8 267.5,746.1 262,752.7 261.2,758 260.9,760.3 261.4,763.1 264.8,764.8 266.7,765.8 269.3,766.4 273,766.2 274.8,766.1 278.1,765.7 282,764.2 286.4,762.6 289,760.6 290.2,759.8 292,758.4 294.5,756.3 296.7,753.3 297.7,752.1 302,746.2 302,738.2 Z " />
   <path id="Path10" stroke-width="0.7" stroke="#000000" stroke-opacity="1" fill="#000000" fill-opacity="1" fill-rule="evenodd" stroke-linecap="round" stroke-linejoin="round" d="M433.5,668 C427.2,668.4 424.9,666.6 424.9,660.2 424.5,648.2 423.3,636.2 423.8,624.2 423.8,624.2 426.5,552.4 426.5,552.4 426.7,542.9 428.1,533.4 431.3,524.3 433.1,519.1 434,518.4 439,520.4 441.9,521.6 444.6,521.4 447.6,520.9 454.8,519.5 462.1,518.6 469.3,517.7 471.1,517.5 473.4,517.5 473.6,520.2 473.9,522.3 472.5,523.2 470.9,523.6 466.8,525 462.5,526.1 458.2,527.2 455.7,527.9 453,528.4 450.3,529.1 446.4,529.7 444.6,531.8 444.9,536.3 445.3,549.4 445.1,562.4 445.3,575.5 445.3,580.9 445.5,580.9 450.7,579.8 455.3,578.9 459.8,577.8 464.6,578.2 466.4,578.2 468.6,578.2 468.9,580.9 468.9,583 467.3,583.7 465.7,584.1 460.9,585.7 456,587.7 451,588.6 446.2,589.6 444.6,592 444.6,596.6 444.6,604.3 444.2,612.2 444.4,620.1 444.4,632.4 443.5,644.6 446.7,657.1 456,655.7 465,654.1 474.1,656.4 475,656.6 476.1,657.3 476.1,658.7 475.9,659.8 475,659.8 474.3,659.8 463.7,660.5 453.5,663.2 443.3,666.1 440.1,667 436.7,667.5 433.5,668 Z " />
   <path id="Path11" stroke-width="0.7" stroke="#000000" stroke-opacity="1" fill="#000000" fill-opacity="1" fill-rule="evenodd" stroke-linecap="round" stroke-linejoin="round" d="M499.6,640.7 C493.7,642 492.4,640.9 491.9,634.9 491.3,629.4 490.7,624 490.5,618.7 490,594.1 489.2,569.5 490.4,544.9 490.7,537.6 492.2,530.6 493.9,523.5 494.3,521.6 494.3,519.1 497.3,519.3 500.3,519.3 502.6,520.6 503.1,523.8 503.5,525.5 503.5,527.4 503.7,529.3 503.7,556.3 507.5,583.2 507.1,610.5 506.9,616.1 507.8,622.1 507.8,627.9 507.8,631.1 509,632.6 512.2,632.1 515.2,631.7 518,631.3 521,631.1 524.7,630.8 524.7,631 527.8,635.7 525.9,637.2 523.6,637.2 521.7,637.3 514.2,637.9 506.9,639 499.6,640.7 Z " />
   <path id="Path12" stroke-width="0.7" stroke="#000000" stroke-opacity="1" fill="#000000" fill-opacity="1" fill-rule="evenodd" stroke-linecap="round" stroke-linejoin="round" d="M545.4,642.2 C539.3,643.5 538,642.3 537.5,636.1 537,630.4 536.5,624.8 536.4,619.3 536.2,593.9 535.8,568.4 537.4,542.9 537.9,535.3 539.6,528.1 541.4,520.8 541.8,518.8 541.9,516.3 545,516.6 548.1,516.6 550.4,518 550.9,521.3 551.3,523.1 551.3,525 551.4,527 551,555 554.5,582.9 553.6,611.1 553.3,616.9 554.2,623.1 554.1,629.2 554.1,632.5 555.2,634 558.5,633.5 561.6,633.2 564.6,632.8 567.7,632.7 571.6,632.3 571.6,632.5 574.6,637.4 572.6,639 570.3,638.9 568.4,639.1 560.6,639.6 553,640.6 545.4,642.2 Z " />
   <path id="Path13" stroke-width="0.7" stroke="#000000" stroke-opacity="1" fill="#000000" fill-opacity="1" fill-rule="evenodd" stroke-linecap="round" stroke-linejoin="round" d="M606.3,675.3 C601.8,674.2 599.7,670.8 597.9,666.9 595,660.6 594.2,653.7 592.9,646.9 590,628.8 587.9,610.7 588.4,595.2 588.2,573.1 590.3,554.5 596.1,536.3 597.6,531.1 599.7,526.1 602.6,521.6 610.8,507.7 628.1,506.7 638.6,519.3 646.7,529.5 648.3,541.6 648.6,553.9 649.1,575.2 645.4,596 641,616.7 637.6,632.7 631.8,648.2 626.8,663.7 623.9,672.9 615.5,677.4 606.3,675.3 Z M617.3,665.3 C626.8,653.2 631,640.9 633.9,628.5 640.2,602.5 643.1,576.3 642,549.5 641.8,543.2 640.4,537.1 638.3,531.1 636.8,526.6 634.1,522.7 631.2,519 629.4,516.4 626.8,515.3 623.9,516.1 621.3,516.7 621,519.3 620.7,521.4 620.7,521.4 620,524.3 620,524.3 612.9,560 609.2,596 611.6,632.5 612.3,643 613.4,653.5 617.3,665.3 Z " />
   <path id="Path14" stroke-width="0.7" stroke="#000000" stroke-opacity="1" fill="#000000" fill-opacity="1" fill-rule="evenodd" stroke-linecap="round" stroke-linejoin="round" d="M636.6,498.7 C636.2,498.7 634.5,498.7 632.5,498.1 632.1,498 630.4,497.5 628.5,496.5 626.9,495.6 623.3,493.5 619.4,489.1 617,486.4 614.9,483.1 613.9,480.1 613.4,478.9 613.4,478.2 613.2,476.9 613.1,476 613.1,474.9 613,474.1 613,473.5 612.9,470.6 613,468.2 613.5,459.5 616.1,446.3 623.3,425.6 626.7,416 632.9,400.4 634.7,394 634.8,393.6 636.2,389.3 635.7,387.8 635.5,386.9 634.7,386.1 633.5,385.7 632.3,385.3 631.6,385.6 630.5,386.5 625.2,390.2 615.4,404.8 606.2,421.7 598.7,435.5 589.7,454.7 585.3,469.8 584.2,473.7 583.4,477.3 583,480.6 582.9,480.9 582.6,483.5 582.7,486.5 582.7,488.6 583,489.5 583.5,491.1 583.3,491.6 583.2,491.7 582.9,492 582.6,492.2 582.3,492.4 581.9,492.6 581.4,492.8 580.3,493.1 578.9,493.1 577.6,493.1 575,492.8 572.6,492 571.2,491.6 568.7,490.6 565.9,488.7 565.6,488.5 562,486.1 560,482.1 559.9,481.9 559.1,480.2 558.7,478.3 558.3,476.1 558.5,473.6 558.5,471 556.6,476.8 553.3,486.1 549.4,493.7 547.5,497.5 544.7,501.9 542.1,503.4 541.8,503.5 541.4,503.7 541.1,503.8 540.7,503.9 540.3,503.9 540,504 539.8,504 538.5,504 537,503.7 535.8,503.4 533.7,502.8 531.2,501.6 530.6,501.3 523.9,498.1 520,491.8 519.5,491 517.3,487.5 516.9,482.7 516.5,476.9 518.3,466.5 519.7,459.7 521,453.7 522.2,448.6 523.4,442.6 523.4,442.2 523.7,441.3 523.4,440.7 523.2,440.3 523,440.2 522.5,440.1 522.5,440.1 522.1,440.1 522.1,440.1 522.1,440.1 521.8,440.3 521.8,440.3 521.5,440.6 521,441.2 520.2,442 518.2,444.2 516.2,446.9 513.4,451.2 510.2,456.2 505.6,463.8 502.8,467.9 501.5,469.9 500,471.8 498.5,473.7 498,474.4 495.2,477.9 492.2,479.8 491.5,480.3 490.3,481 489.1,481.2 488.6,481.3 487.3,481.4 486.2,481.3 483.7,481.2 481,480.4 478.2,478.4 475.9,476.7 474.1,474.3 473,472.2 472.9,472.1 472.3,470.7 472.2,470.3 471.5,472.4 468.1,483 463.2,490.3 463,490.6 460.6,494.4 457.4,496.7 452.2,500.4 446.2,499.6 441.5,495.3 433.9,488.5 430.4,473.7 430.1,472.5 424.3,450.2 426.5,431 426.9,426.4 423.9,427.3 418.1,428.9 409.3,431.4 409.2,431.4 407.6,431.8 406.3,432.4 406.2,432.5 404.7,433.1 403.9,434.2 402.8,435.7 402.9,437.7 402.2,440.1 402,440.8 399.6,447.9 396.2,455.3 394.9,458.1 391.5,465.5 386.5,473.1 385.8,474.2 382.9,478.7 378.7,483.6 378.2,484.1 374.4,488.6 369.3,492.6 368.6,493.1 365.7,495.4 362.5,497.2 358.9,499.2 355,500.7 351.5,501.1 350.6,501.2 348.2,501.3 345.7,500.6 345,500.4 342.1,499.5 339.6,497 339,496.3 337.5,494.7 336.5,491.9 334.6,486.6 335.3,479.5 337.2,473.3 339.9,464.5 345.2,457.7 347.1,455.3 349.1,452.9 352,449.7 355.7,446.4 357.7,444.8 359.5,443.3 361.3,442.2 364.3,440.1 366.7,439 368.6,438.7 369.1,438.7 369.5,438.6 369.7,438.4 369.9,438.3 370.1,438.2 370.3,438 370.4,437.9 371.1,437.1 371.7,436.3 374.1,433 377.1,427.1 379.5,421.9 380.6,419.2 387.2,404.2 387.5,394 387.5,391.9 387.4,387.4 384.2,386.1 382,385.3 378.3,386.1 375,387.9 367.3,392.2 360.7,402.1 358.1,406.4 353.2,414.1 346.6,426.2 338.6,447.5 330.1,470 324.7,490.5 321.8,505.2 321.2,508.6 320.9,510.1 320.6,515 320.5,518.1 320.4,520.7 320.4,522.8 320.3,531.3 320.9,560.7 320.9,564.9 320.8,566.9 320.7,567.8 320.7,568.8 320.6,569.1 320.6,569.6 320.6,569.9 320.6,570 320.4,571 320,571.8 319.7,572.4 319,573.4 317.5,573.9 316.3,574.4 314.4,574.5 312.5,574.1 309.4,573.5 306,572 302.9,570.2 299.7,568.4 297.3,566.4 295.6,564.1 295.5,563.9 294.6,562.7 294.4,561.1 294.2,560.1 293.7,550.4 293.6,539.6 293.5,536 293.3,503.4 296.4,467.4 297.3,456.9 302.4,391.1 320.1,365 321.4,363.1 324,359.4 327.7,357 328.9,356.1 331.2,354.7 334.5,354.2 335.4,354.1 339.2,353.8 343.5,355.1 343.8,355.2 346.9,356.1 349.3,358.4 353.4,362.3 353.5,367.8 353.6,368.9 353.6,369.2 353.7,372.7 352.9,375.1 352.3,376.8 351.2,379.4 348.5,383.2 345.4,387.6 341.6,391.4 339.7,393.3 339,393.9 335.6,397.2 333.1,398.8 332.8,399.1 332.3,399.4 331.9,399.6 331.7,399.7 331.2,399.9 331,400 330.8,400.1 330.5,400.3 330.3,400.4 330,400.7 329.5,401.3 329.2,402 328.3,403.6 327.3,406.5 326.4,410.3 322.8,425.3 320.1,456.1 319.8,461.2 319.8,461.2 319.7,463 319.7,463 319.7,463.6 319.7,463.9 319.7,463.9 319.7,464.4 319.7,464.4 319.8,464.8 319.8,464.8 320.1,465.1 320.1,465.1 320.4,465.2 320.9,465.4 321.6,465.2 322,465.2 322.1,465.1 322.6,464.8 322.7,464.7 322.8,464.5 322.9,464.4 322.9,464.2 323,464 323,463.9 323,463.9 323.3,462.9 323.3,462.9 323.6,461.8 323.8,461.1 323.8,460.9 325.6,454.6 330.5,437.6 338.8,419.8 340,417.2 343.3,410.3 347.7,403 349.1,400.7 353,394.4 358.4,388.3 363.9,382.3 368.6,379.1 372.6,377.1 373.3,376.7 380,373.3 387.5,374.1 388.3,374.2 391.8,374.6 395.2,376.9 396.8,377.9 398.6,379.5 400.5,382.5 401.2,383.5 402.7,386.1 403.9,390.1 404.2,390.9 405.2,394.3 405.8,398.7 406.1,400.9 406.7,406.1 406.4,413.6 406.3,416 406,419.4 405.8,420.4 405.7,421.5 405.5,422.6 405.1,424.8 409.5,424.2 411.4,423.8 417.5,421.8 420.6,420.8 422.6,420 427.8,418.5 429.9,405.5 434.1,386.9 444.2,368.4 445.2,366.5 455.8,346.3 472.1,336.5 474.2,335.2 480.2,331.7 487.5,331.3 491.3,331.1 495.3,331.7 498.2,333.1 498.7,333.4 499.5,333.8 500,334.1 500.5,334.4 501.1,334.9 501.5,335.3 502,335.6 502.5,336.2 502.9,336.6 503.5,337.2 504.8,338.8 506,341.4 506.8,343.4 507.8,346.5 508,351.7 508.1,353.3 508.2,354.9 507.7,358.1 507.5,359.5 506.9,362.4 506,365.2 505.3,367.3 503.6,372.3 500.2,378.9 494.7,389.4 486.8,401 477.5,411.2 472.3,416.9 466.7,422.1 461.5,426.1 457.4,429.3 453.5,431.8 449.7,433.7 449.7,433.7 447.7,434.7 447.7,434.7 447.2,434.9 446.8,435.2 446.5,435.5 446.4,435.6 445.4,436.6 444.7,437.8 444.4,438.4 444.3,438.6 444.3,439.4 444.2,440.5 444.2,441.1 444.2,441.1 444.1,443.4 444.1,449.6 444.8,456.5 446.3,472.2 449.3,483.5 452.3,487.1 453.4,488.4 454.7,489.3 456.2,488.3 457.7,487.3 459.4,484.5 460.5,482.6 461.3,481.2 463.2,477.6 465.4,472.3 467.6,467 471.1,457.7 471.3,456.9 471.4,456.2 471.4,455.2 471.5,454.4 471.7,453.2 471.9,451.6 472.1,450.5 472.3,449.2 472.6,447.5 472.9,446.3 473.5,443.3 474.3,440.4 475.2,437.5 476.5,433.3 480.6,421.5 489.7,411.8 490,411.5 492.4,409 495.5,406.6 496.2,406 498.5,404.3 500.3,403.3 500.7,403.1 502.2,402.1 502.7,402 504.7,401.4 508.6,402 513,403.6 514.8,404.2 520,406.1 524,409 524.2,409.2 527.3,411.3 528.2,413.7 528.3,414.2 528.4,414.6 528.4,415 528.4,415.2 528.3,415.5 528.3,415.7 528.3,415.8 528.3,415.9 528.5,416.2 528.5,416.2 528.8,416.4 528.8,416.4 528.8,416.4 529.2,416.4 529.2,416.4 529.2,416.4 529.4,416.2 529.4,416.2 529.6,415.8 530.2,413.6 530.4,413 530.7,411.8 531.3,409.2 532.6,407.6 533.1,406.9 533.9,406.3 535.1,406.1 535.1,406.1 537.1,405.9 537.1,405.9 537.4,405.9 537.9,405.9 538.3,406 538.7,406 539.7,406.2 540.8,406.5 541.6,406.8 543.8,407.6 545.8,409 547.6,410.2 549,411.5 549.8,412.6 549.9,412.8 550.5,413.5 550.9,414.5 551.3,415.4 551.3,416.3 551.3,416.5 545.9,438.3 542.1,456.6 540,471.4 539.5,474.7 538.2,483.9 538.9,487.9 539,488.9 539.2,489.5 539.6,489.9 539.6,490 539.8,490.1 540.1,490.3 540.7,490.2 541,490 541.4,489.7 541.6,489.5 542.3,488.7 543,487.7 545.3,484.2 548.1,477.7 549.2,475.2 552,468.8 555.7,459.4 560.3,447.2 561.4,436.8 562.7,426.3 564.2,415.9 565,410.9 566.7,399.5 568.7,390.8 569.3,388 570,385.3 570.9,382.6 571.1,382 571.5,381.1 572,380.1 573,380.2 574.1,380.2 576.1,380.6 577.6,381 578.8,381.3 579.5,381.5 583.1,382.7 586.1,384.1 588.1,385.4 590.1,386.6 592.1,388.3 592.9,390.1 593.3,391 593.4,391.6 593.3,392.5 593.3,393.3 593.2,394.3 592.9,396.1 592.6,397.5 591.8,401.5 591.7,401.7 590.2,408 585.2,425.2 583.7,433.1 583.7,433.6 582.7,438.6 582.8,441.5 582.8,442.2 582.9,442.8 583.1,443.3 583.3,444 583.8,444.8 584.7,445.7 584.9,445.1 585.4,443.4 585.9,441.9 586,441.7 587.3,438.4 587.8,437.2 590.1,431.9 594.5,422.8 600.9,411.5 607.2,400.5 619.2,380.9 629.3,369.6 632.2,366.4 637.4,361.2 641,361.2 643.9,361.2 648.1,362.8 651.9,365.6 653.1,366.5 659.5,371.2 660.5,377.8 660.8,379.8 660.5,383.5 659.8,388 659.3,391.1 658.2,396.5 656.3,403.4 653.9,411.8 646.5,433.4 645.4,436.7 645,437.9 641.2,449.2 639.1,459.7 639,460.3 637.8,466.4 637.5,471.9 637.4,475.3 637.5,476.5 637.8,480.3 637.9,480.5 638,480.7 638.2,480.8 638.7,481.2 639.2,481.4 639.8,481.4 640.3,481.5 640.5,481.2 641,480.8 643.8,478.5 645.6,476.7 648.1,473.5 650.9,470.1 654,465.8 658,459 662.9,450.7 672.5,432.2 673.2,430.8 675.1,427.4 676.7,424.5 678,422.3 678.7,421.1 679.6,419.6 680.4,418.4 681.1,417.4 682,416 682.7,415 683.1,414.5 683.6,413.4 684.5,412.5 685,412 685.1,411.9 685.9,411.6 685.9,411.6 686.5,411.5 686.5,411.5 686.5,411.5 687,411.7 687,411.7 687.4,412.1 687.6,412.2 687.8,412.9 687.9,413 688.1,413.7 688.2,414.7 688.2,414.9 688.4,417.1 687.7,419.3 687.6,419.4 687.3,420.5 686.7,421.6 686.3,422.3 685.6,423.2 685.2,424 684.6,425 683.9,426.5 683.3,427.5 682.3,429.3 670.6,452.9 664.8,463.6 661.3,470 652.3,486.5 644.5,494.2 644.2,494.5 641.4,497.3 638.8,498.3 638,498.6 637.5,498.7 636.6,498.7 Z M520.9,422 C520.7,420.8 520.6,418.9 519.2,416.3 519.2,416.3 518.8,415.3 518.1,414.8 517.7,414.6 516.9,414.4 516.4,414.3 515.4,414.1 512.6,414.1 512.1,414.2 511.6,414.2 511.2,414.3 510.5,414.6 509.4,415.2 508,416.4 506.7,418 502.4,423.2 496,435.7 492.6,448.8 491.5,453.1 490.8,457 490.7,460.5 490.7,461 490.7,462.8 490.8,463.6 490.9,464.5 491.1,465.1 491.4,466.1 491.4,466.1 491.7,466.6 491.7,466.6 491.7,466.6 492.2,466.8 492.2,466.8 492.4,466.8 492.6,466.8 492.8,466.7 493,466.7 493.3,466.5 493.5,466.4 493.8,466.3 494.1,466.1 494.3,465.9 495,465.5 496.2,464.4 497.2,463.2 500.1,460.1 504,455 509.6,446.1 511.7,442.6 517,433.9 519.4,428.3 520.1,426.8 520.5,425.5 520.7,424.4 520.8,423.6 520.8,423.1 520.9,422 Z M502.7,354.1 C502.7,353.6 502.7,349.5 501.2,345.3 500.8,344.4 499.9,341.8 497.8,339.8 495.5,337.6 493.6,337.4 491.1,337.6 490.4,337.6 487.2,337.9 483.8,339.5 473.6,344.1 466.7,356.1 464.7,359.8 455.9,375.3 450.7,395.2 449,401.7 448.5,404 445.3,416.6 444.7,424.8 444.5,426.1 444.7,427 445.2,427.7 446,428.6 446.9,428.4 448.2,427.8 450.5,426.8 454.1,424.2 456.4,422.3 471,410.5 484.9,393.5 492.1,382.1 497.7,373.3 502.6,363.1 502.7,354.1 Z M345.1,477.3 C345,478.1 345.1,478.7 345.4,479.3 345.6,479.7 345.7,479.8 346.2,480.1 347,480 347.3,479.8 348.3,479.1 349,478.6 349.8,477.8 351,476.5 352.3,475 355.2,471.4 358.7,465.7 360.3,463.1 363,458.2 364.2,454.7 364.3,454.5 365.1,452.6 364.7,450.5 364.7,450.4 364.7,450.1 364.5,449.7 364.5,449.7 364.3,449.6 364.3,449.6 364.3,449.6 364,449.5 364,449.5 363.4,449.5 363.1,449.8 362.7,450 362.4,450.2 361.4,450.8 360.3,451.8 358.7,453.2 356.1,456 353.3,459.9 351.6,462.3 349,466.3 347.3,470 346.6,471.5 346,473 345.6,474.6 345.4,475.1 345.2,475.9 345.1,477.3 Z M330.7,387.6 C330.7,388 330.7,388.5 330.8,388.9 330.9,389.1 331,389.4 331.1,389.7 331.1,389.7 331.2,389.9 331.2,389.9 331.2,389.9 331.5,390 331.5,390 332.4,389.7 333.1,389.5 334.4,388.6 335.6,387.7 336.7,386.8 337.8,385.8 340.6,383.2 342.8,380.2 344.4,376.9 345.2,375.4 345.9,373.8 345.9,370.5 345.9,369.3 345.9,366.5 344.6,364.9 343.7,363.9 342.4,363.7 340.7,364.2 339.8,364.5 338.4,365.3 336.8,367.1 335.5,368.8 333.7,371.7 332.3,377 332.2,377.3 331.3,380.8 330.9,383.9 330.8,384.8 330.7,385.7 330.7,387.6 Z " />
   <path id="Path15" stroke-width="0.7" stroke="#000000" stroke-opacity="1" fill="#000000" fill-opacity="1" fill-rule="evenodd" stroke-linecap="round" stroke-linejoin="round" d="M455.5,247.4 C456.3,248.3 457.5,249.5 458.4,250.4 459.3,251.3 460.5,252.4 461.4,253.3 461.8,253.1 462.3,252.8 462.7,252.6 463.1,252.4 463.6,251.9 464,251.6 464.2,251.5 467.7,248.6 468.6,247.9 472.6,244.4 481.8,236.1 495.1,224.5 495,223.5 494.3,219.8 494.2,215.2 494.2,215 494.1,213.1 494.3,211.8 494.5,209.8 495.4,206.2 497.2,202 499.8,195.6 503.4,187.5 512.6,179.3 512.9,179 515.9,176.3 519.9,174.2 521.1,173.6 524.2,172 528.9,171.4 530.6,171.1 533.3,170.9 537.7,171.5 539.7,171.8 543.2,172.4 547.2,174.3 550.4,175.7 553.9,178 556.9,180.7 559.9,183.5 563,187.2 565.5,191.3 569.5,198.1 571.9,206 572.8,212.7 574.6,225.7 571.2,240.5 570.2,245.4 570.2,245.4 569.7,247.9 569.7,248.6 569.7,248.6 569.8,249.1 570,249.3 570.2,249.6 570.7,249.8 570.9,249.9 572.1,249.6 573.3,249.3 574.7,248.7 577.6,247.3 579,246.4 581.7,244.6 582.5,239.4 584.3,227.8 586.5,219 586.5,219 587.5,215.1 588.2,213 588.4,212.6 588.8,211.6 589.4,210.3 589.4,210.3 591.7,210.4 593.9,210.9 593.9,210.9 596.6,211.5 599.2,212.4 599.2,212.4 604.6,214.2 608.3,216.9 609,217.4 611.4,219.1 612.3,221.2 612.4,221.5 612.5,221.9 612.6,222.2 612.6,222.5 612.7,222.9 612.7,223.1 612.7,223.1 612.6,225.2 612.4,226.3 611.7,232.4 607.9,245.2 606.6,249.9 606.1,252 603,263.4 601.7,270.8 601.7,270.8 601.1,274.6 601.2,277.3 601.2,277.4 601.2,278.3 601.5,279.2 601.9,280.4 602.5,281 603.3,281.8 603.7,280.5 604.3,278.5 605.5,275.3 605.9,274.4 606.4,273.2 606.8,272.3 607.7,270.3 609.7,265.6 613.1,259.1 613.8,257.7 620.6,244.7 629.1,230.8 630.1,229 642.1,209.1 653.6,197 655,195.7 660.2,190.2 664,189.7 666.6,189.3 671.7,190.8 676.6,194.4 676.6,194.4 681.3,197.7 684,202.5 684.4,203.2 686.1,206 686.1,209.7 686.1,210.8 685.9,215.1 685,220.3 684.2,224.4 683.2,229.3 681.1,236.4 676,253.7 667.3,276.1 663.4,293.7 662.3,298.4 661.5,303.1 661.1,307.2 660.8,311.5 660.7,313.4 661.2,319.6 661.4,320 661.7,320.3 662.5,320.6 662.6,320.7 663.2,321 663.8,320.8 664.1,320.7 664.3,320.5 664.7,320.2 665,319.9 665.4,319.6 665.7,319.3 665.7,319.3 667.5,317.7 668.6,316.6 671.2,313.9 674.2,310.3 678,304.7 684.4,295.1 691,282.3 692.3,279.8 692.3,280.7 692.3,298.2 692.3,298.2 690,302.6 683.1,315.9 675.3,326.5 674.9,327.2 672.5,330.4 670.4,332.8 670.1,333.1 667.4,336.1 664.9,337.8 663.9,338.4 662.5,339.4 660.7,339.6 659.6,339.8 658.2,339.7 656.6,339.3 654,338.8 651.2,337.5 648.7,335.8 644.2,332.8 640.8,329.2 638.8,326.4 638.6,326 635.9,322.4 634.8,318.6 634.6,317.8 634.6,317.4 634.5,316.3 634.5,316.3 634.2,314 634.2,313.6 634.1,311.5 634,308.3 634.4,303.1 635,296.8 636.7,288.6 638.3,282.5 643.1,264.4 652.1,242.1 655.7,232 655.8,231.5 658,225.5 658.7,221.9 658.8,221.6 659.3,219.7 658.9,218.6 658.4,216.9 656.2,216 655,216.2 653.1,216.7 650.2,219.8 647.7,222.9 640.3,231.9 631.4,247.1 626.8,255.7 622,264.4 615.6,276.7 609.8,291.4 609.2,292.7 603,308.1 601.4,319.9 601.3,320.6 600.8,323.9 601.1,327.1 601.2,328.6 601.5,329.7 602,331.4 601.8,331.7 601.6,332.2 601,332.6 600.7,332.8 600.2,333.1 599.3,333.3 597.2,333.8 594.6,333.4 593,333.1 585.2,331.6 580.7,327.3 579.1,325.6 577.8,324.2 576.3,322 575.4,319.2 574.3,315.9 574.6,312.2 574.7,309.2 575,301.3 576.3,283 579.8,257 573.9,261.1 572.4,261.7 566.1,265.2 564.7,267.3 564.4,268 563.7,269.7 563.7,269.7 560.7,276.4 560.7,276.4 556.7,285.8 553.4,292.8 549.3,299.3 549.3,299.3 546.5,303.8 544.4,306.6 544,307.2 542.2,309.5 539.7,312.2 539.3,312.6 535.7,316.5 530.9,319.6 529.1,320.8 520.8,326.3 510,325.4 508.9,325.3 504.5,324.9 499.9,322.5 497.5,321.3 494.4,319.3 491.6,316.2 491,315.5 488.3,312.7 486.2,308.4 484,303.9 483.1,300 482.7,297.7 481.7,291.5 482.1,286 482.9,279.8 483.1,278.1 483.5,275.8 483.8,274.2 484,273 484.3,271.5 484.5,270.4 484.8,269.3 485.1,267.8 485.4,266.7 485.4,266.7 486.4,262.9 487.5,260 488.3,258 489.8,254 492.5,250.9 493.7,249.6 495.2,248.3 496.6,247.7 498.1,247.1 499.1,247 500.2,246.8 500.2,246.8 501,246.6 501,246.6 501.7,246.5 501.9,246.5 502.4,246.2 502.4,246.2 502.6,246 502.6,246 502.6,246 502.6,245.7 502.6,245.7 502.2,244.3 501.6,243.8 500.8,241.8 500.5,241.2 500.3,240.3 500,239.7 499.6,238.4 498.8,236.8 498.3,235.5 498.2,235.1 497.9,234.5 497.8,234.1 496.5,235.1 479.7,248.2 473.2,255.4 473,255.6 470.9,257.8 469.7,259.8 469.5,260.1 469.2,260.7 468.9,261.6 468.9,261.6 468.8,263.5 469.2,264.7 469.4,265.5 470,266.3 470.5,267.2 471.5,268.8 471.9,269.4 472.8,271.3 472.8,271.3 473.8,273.8 474.3,275.1 477,282.9 477,290.4 476.6,295.5 476.4,296.9 475.9,302.5 473.6,309.1 473.2,310.2 471.6,314.8 468.6,319.9 467.1,322.4 465.1,325.2 462.8,327.8 462,328.7 458.8,332.4 453.7,335.7 452.1,336.8 449,338.6 444.8,340.1 444.3,340.2 443.6,340.4 443.1,340.6 442.7,340.7 442,340.9 441.5,341 441.3,341 439.4,341.5 437.2,341.8 436.8,341.8 433.2,342.3 429.3,341.6 428.5,341.4 425.2,340.8 421.5,338.9 417.7,337.1 412.4,333.6 408.8,328 407.8,326.3 406.4,323.9 405.7,320.9 405,318.3 405,317.1 405,315 404.6,316.4 403.9,319.6 402,323.8 402,323.8 400.5,327.3 398.5,330.5 397.7,331.8 394.7,336.9 389.3,341.8 385.5,345.2 377.4,351.5 365.8,352.3 365.8,352.3 362.6,352.5 359.5,352 359,351.9 358.2,351.7 357.7,351.6 357.2,351.5 356.5,351.3 356,351.1 355.5,350.9 354.8,350.7 354.3,350.5 353.3,350.2 349.4,348.6 345.4,345.4 342.8,343.4 339.3,339.9 337.1,335.1 335.5,331.5 335.3,329.4 335.1,327.5 334,328.4 322.7,338.8 310,342.7 302.9,344.8 296.9,344.5 291.3,343.5 289.4,343.1 284.7,342.2 278.7,339.3 278.1,339.1 275.5,337.8 273,336.2 272.8,336 269.7,334 268.4,333 266.8,331.8 263.9,329.4 261.1,325.7 259.1,323.2 258,321.1 256.5,317.8 254.2,324.9 247,349.6 236.4,363.4 230.1,371.5 224.3,374 219.2,374.4 201.2,375.7 192,352.7 189.8,347.1 187.8,342.3 185.5,335.3 183.6,327.3 183,324.6 180.4,313.7 179.1,300 178.2,291.3 176.6,270.5 181.1,241.7 182,235.3 185.9,209.1 198.7,179.3 201.8,172.1 210.4,152.8 225,134.6 237.9,118.5 249.7,109.9 260.2,105.1 260.7,104.8 265.9,102.4 272,101.2 274,100.9 279.2,100 285,100.5 297.2,101.8 305.3,107.5 309.3,119 310.2,121.4 311.8,127.1 312,135.4 312.1,138.1 312.1,142.2 310.6,148.7 306.4,166.5 295.7,185.1 288.7,196.2 280.6,208.9 267.9,226.2 250.4,242.8 249.5,243.7 241.4,251.5 231.2,258.7 231.2,258.7 225.8,262.7 219.9,265.9 218,267 214.1,269 213.4,269.3 212.6,269.8 212.2,269.9 211.6,270.5 211.1,270.9 210.1,271.8 209,273.5 209,273.5 208.3,274.5 207.9,275.6 207.7,276.1 207.8,276.7 207.7,277.1 207.4,283 207.2,288.9 208.2,300.8 209,310.8 210.3,320.7 212,329.2 212,329.2 214.4,342.2 218,350.1 218.7,351.6 220.4,355.3 222.9,356.9 224.3,357.7 225.6,358 227.5,356.7 229.9,355 232.6,350.7 234.6,347 238.5,339.8 244.4,326.7 250.6,309.3 250.6,309.3 254.4,298.7 254.5,298.1 254.8,296.9 254.8,295.4 254.9,294.2 254.9,294.2 255.3,290.9 255.9,287.6 257.2,281.1 261.1,262.8 273.1,246.9 275.1,244.4 278.7,239.9 284.5,235.4 286.1,234.2 290.6,231 296.2,228.8 302.2,226.5 307.9,225.8 310,225.7 310.6,225.6 314.2,225.6 314.2,225.6 314.6,225.6 315.3,225.7 315.8,225.8 315.8,225.8 318.4,226.5 320.5,227.4 323.2,228.5 326.9,230.5 330.4,233.6 331.1,234.2 333.9,236.7 336.2,240.6 338.2,244 339.1,247.5 339.2,248.8 339.3,249.8 339.4,252.6 337.9,255.9 333.8,265 322.4,270.9 315.9,273.8 310.8,276.1 304.5,278.3 298.1,279.5 295.5,280 292.2,280.2 292.2,280.2 291.9,280.2 291.1,280.2 290.4,280.7 288.9,281.7 287.8,284.3 286.9,287.1 286,290.3 285,296.2 284.6,303.8 284.5,305.1 284.1,312.7 284.5,316.5 284.5,316.7 284.7,318.6 285.5,320.5 285.9,321.5 287.1,324.1 290.1,326.2 291.6,327.3 294.2,328.7 298.8,329.3 301.6,329.7 304.2,329.7 307,329.1 318.2,326.7 330.4,315.7 338.7,307.8 350.9,296.2 368,277.5 368,277.5 368,277.5 371.4,273.8 371.4,273.8 371.4,273.8 372.1,273 372.9,272.4 371.2,269.4 370.7,268.9 369.2,266.6 368.6,265.8 362.2,256.9 358,250.2 358,250.2 354.4,244.3 352.4,240.3 351.1,237.7 350.2,235.8 349.2,232.7 348.4,230.6 347.1,226.7 347.4,221.7 347.6,219.7 348.2,215 350.9,209 358.2,192.9 371.7,182.5 373.1,181.4 377.4,178 385.4,172.6 393.1,172 394.4,172 396.7,171.8 399.4,173.6 400.7,174.5 402.4,176 404.2,179.2 406.1,182.7 407.2,186.6 407.7,190 408,191.8 408.7,195.2 407.8,199.3 407.7,199.4 407.4,201 406.9,202.1 406.6,202.7 406,203.5 405.4,204.4 405.2,204.6 402.9,208.2 401.1,208.5 399.5,208.8 398.9,206.5 398.7,205.8 398,203.8 397.4,200.5 396.7,198.8 396.2,197.8 395.5,196.9 395.5,196.9 395.5,196.9 395.2,196.8 395.2,196.8 394.6,196.8 394.4,196.7 393.6,197 393.1,197.2 392.5,197.5 392.1,197.7 391.9,197.8 389.9,199 388.3,200.1 387.2,200.9 383,204 378.4,208.6 376.9,210.1 372.4,214.7 369.8,219.6 368.7,221.6 368,223.5 368,225.8 367.9,229.8 369.8,234.6 369.8,234.6 370.4,236.2 371.6,239.1 373.7,242.5 375.1,244.9 377.4,248.5 381.9,253.8 385.9,258.5 389.5,261.8 391.5,263.6 391.6,263.6 392.4,263.2 393.3,262.6 394.8,261.5 396.6,260 399.2,257.7 403.2,254.4 412.1,246.2 425,234.9 425,234.9 421.3,228.9 419.1,222.3 419,222 417.9,218.7 417.5,216.2 417.4,215.6 417.3,213.9 417.3,212 417.3,211.8 417.5,209.2 418.2,206.5 418.4,205.6 419.3,202.2 421.1,198.2 422.1,196.1 424.5,191.1 429.2,185 431,182.6 436.1,176.4 443.2,170.9 443.7,170.5 448.3,166.8 454.1,164.2 454.8,163.8 458,162.4 461.4,161.9 462.9,161.6 465,161.4 467.2,162.1 468.6,162.6 470.7,163.8 472.9,166.8 474.3,168.9 475.8,171.7 476.9,176.1 477.1,176.6 478.3,181 478.1,185.9 478.1,185.9 478,189.3 476.8,191.7 476.4,192.6 474.4,195.3 474.1,195.6 473.4,196.5 472.9,196.9 472.6,197.2 472.5,197.3 471.6,198.3 470.6,198.1 469.3,197.9 468.7,195.6 468.5,195.1 468.2,194.1 467.4,190.4 466.6,188.5 466.2,187.6 466,187.3 465.4,186.5 465.4,186.5 465.1,186.4 465.1,186.4 464.3,186.4 464.3,186.4 463.6,186.6 463.1,186.8 462.5,187.1 462.1,187.3 461.7,187.5 460.2,188.4 458.4,189.6 455.7,191.5 452.1,194.5 448.3,198.2 447.8,198.8 447.1,199.5 446.6,200.1 446.1,200.6 445.5,201.3 445,201.8 444.8,202 443.1,204 441.5,206.4 441.5,206.4 439.6,209.1 438.7,211.6 438.1,213.1 437.8,214.2 438,216.8 438,217.6 438.4,220.6 439.7,224.2 441.6,229.3 445,234.4 445.4,234.9 449.8,241.6 454.9,246.8 455.5,247.4 Z M384.7,303.2 C384.6,300.6 384.6,297.8 382.4,293.1 382.4,293.1 381.6,291.4 380.9,290.2 380.7,290.2 380.4,289.9 379.9,289.8 379.7,289.8 379,289.5 378.2,289.7 377,290 375.2,291 373.7,292 370.7,293.9 366.8,297.2 362.7,301.2 362.4,301.5 359.5,304.3 356.7,307.7 352.5,312.7 349.3,317.7 348.4,321.6 348.1,323.1 347.7,325.4 349.3,327.5 350,328.4 351.3,329.6 353.9,330.2 354.6,330.4 356.5,330.8 359.2,330.5 361.2,330.4 366.2,329.7 371.7,326.1 372.5,325.6 375.4,323.6 378.2,320.3 378.2,320.3 379.9,318.3 381.2,316.1 382.4,314 383.5,311.3 384.1,308.6 384.5,306.7 384.6,305.6 384.7,303.2 Z M514.9,215.6 C514.8,221.7 515.9,230.8 520.8,239.3 526.7,249.4 535.5,253.1 538.8,254.3 540.5,254.9 544.7,256.3 550.7,256.5 550.7,256.5 552.6,256.7 553.2,256.5 553.3,256.5 553.6,256.4 553.7,256.3 554,256.1 554.7,255.6 555.3,254.7 556,253.6 557,251.8 557.9,248.7 559.2,244.2 560.2,238.2 560.5,235.5 560.9,232.5 562,221.2 561.3,215.1 561.3,215.1 560.9,212.4 560.1,209.7 559.9,208.9 559.3,207 558,204.4 558,204.4 556.7,201.9 555,199.7 554.6,199.1 553,196.9 550.5,194.7 550.3,194.5 548.2,192.5 545.5,191 545.5,191 543.3,189.8 540.9,189 540.9,189 537.4,187.7 533.7,187.7 532.5,187.7 529.4,187.8 526.1,190 525.6,190.3 524.9,190.8 524.4,191.2 524.1,191.5 523.6,191.9 523.3,192.2 523,192.5 522.6,193 522.3,193.3 522.1,193.5 520.7,195.2 519.6,197.2 517.7,200.5 515,207.1 514.9,215.6 Z M548.9,270.5 C548.9,270.5 544.6,270.4 540.4,269.5 535.5,268.5 528.1,266.1 526.7,265.7 526.7,265.7 523.7,264.8 522.7,264.9 522.4,264.9 521.8,265.1 521.3,265.5 517.1,268.2 514.2,278.9 513.1,283.7 513.1,283.7 512,288.8 511.7,293.1 511.7,293.8 511.4,297.7 511.6,300.1 511.6,300.5 511.9,304.7 513.5,307.2 513.5,307.2 514.9,309.1 514.9,309.1 515.3,309.5 516.1,310.3 517.3,310.9 519.6,312 521.9,311.3 522.4,311.3 525,309.7 526,309.1 528.5,306.8 528.9,306.4 530.9,304.5 532.8,302.5 535.1,299.9 538.1,296.1 541,291.5 542.5,289.2 545,285 547,279.2 547.7,277.4 548.1,275.8 548.2,275.4 548.6,273.5 548.6,273 548.9,270.5 Z M454.6,292.8 C454.5,290.2 454.5,287.4 452.4,282.8 452.4,282.8 451.5,281 451.5,281 451.4,280.7 451.2,280.4 450.8,279.9 450.2,279.5 449.4,279 448,279.4 446.9,279.7 444.8,280.8 442.9,282.1 438.4,285.1 434.1,289.4 432.6,290.8 432.6,290.8 429.7,293.7 427,296.9 425,299.2 420.6,304.7 418.9,309.7 418.1,311.8 417.4,314.8 419.3,317.2 421.9,320.5 427.1,320.3 428.1,320.3 431.1,320.1 433.7,319.4 435.5,318.8 436.2,318.5 438.8,317.6 441.7,315.7 446.8,312.3 449.7,308.1 451.1,305.7 452.1,304 453.4,301.4 454.1,298.2 454.4,296.6 454.6,295.5 454.6,292.8 Z M303.2,137.6 C303.2,135.3 303,129 300.4,122.6 300,121.6 298.2,116.9 294.6,113.7 293.8,113 292.1,111.6 290.1,111 289.1,110.7 287.7,110.5 286.1,110.5 282.6,110.6 277.5,111.4 272.4,113.7 269.7,115 267,116.5 263.8,118.9 263.5,119.1 260.7,121.3 258.4,123.6 252.6,129.2 247.5,135.8 242.1,145.2 239.5,149.6 233.7,160 227.7,175.8 224.8,183.5 220.6,195.3 215.5,215.4 215.1,217.2 209.2,241.4 208.4,252.9 208.3,253.5 207.9,257.7 210.4,258.7 211,258.9 211.6,258.9 212.6,258.6 213.8,258.2 215.4,257.5 218,256 221.6,253.8 225.4,250.8 229.2,247.7 230.1,247 234.2,243.6 238.1,239.9 246.5,232.3 255.7,222.7 264.2,212.6 265.6,211 278.1,196.6 288.8,178.6 294.3,169.2 303.1,152.8 303.2,137.6 Z M292.3,265.9 C292.5,268.6 296.7,268.7 297,268.7 299.9,268.9 301.5,268.5 303.4,268.1 305.1,267.7 306.8,267.3 310,265.9 316,263.5 320.8,260 323.6,257 325,255.5 326.3,253.7 326.6,252.6 326.7,252.5 326.9,250.9 326.8,249.2 326.4,245.6 324.3,243.1 321.4,242.1 320.2,241.6 317.9,241.3 316.4,241.6 316.2,241.6 313.8,242.3 312.1,243 303.1,246.8 298.6,253 296.9,255.4 295.8,257 294.6,259.1 293.2,262.4 293.2,262.4 292.2,264.4 292.3,265.9 Z M398.9,272 C398.9,272.1 398.9,273.9 399.2,275.1 399.5,275.9 400,276.7 400.6,277.6 401.3,278.7 401.8,279.5 402.8,281.6 403.1,282.2 403.4,283 403.7,283.6 403.8,283.8 404.6,286.1 405,287.4 405.3,288.4 406.4,292.4 406.8,297.5 406.8,297.8 407,300.7 406.8,303.8 406.7,306.3 406.4,307.6 406,310.7 406.4,309.6 407,307.7 408.6,305 408.7,304.7 410.3,302 411.7,300.1 413.9,297 417.2,292.9 421.4,288.6 423.6,286.4 426.7,283.2 432.6,278.5 433.4,277.8 434.5,276.9 435.3,276.2 435.8,275.9 436.3,275.5 436.7,275.1 436.7,275.1 439.2,273 439.3,272.9 442.2,270.5 444.5,268.1 444,264.9 443.8,263.8 443.2,262.2 441.7,260 441,259 437.3,253.7 437.1,253.4 434.5,249.7 433.4,248.1 429.9,242.8 427.7,244.6 424.7,247 422.5,248.8 420.3,250.6 417.4,252.9 415.2,254.8 414.1,255.6 412.8,256.8 411.7,257.7 410.4,258.8 406.4,262.3 403.2,265.7 403.2,265.7 401.1,268 399.8,270.1 399.6,270.5 399.3,271 398.9,272 Z " />
   <path id="Path16" stroke-width="0.7" stroke="#000000" stroke-opacity="1" fill="#000000" fill-opacity="1" fill-rule="evenodd" stroke-linecap="round" stroke-linejoin="round" d="M690,732.7 C683.8,732.1 691.4,585.1 691.7,585.9 683.7,574.8 672.2,563.4 668.9,580 668,582.3 655.4,698.4 670.5,732.5 670.5,734.4 687.6,741.1 690,732.7 Z M675.8,762.2 C669.8,766.3 666,773.9 664.5,780.7 663.4,785.4 666.7,789.1 669.5,792.3 675.1,798.3 688.5,787.7 690.8,781.3 693.4,773.7 684,756.3 675.8,762.2 Z " />
</g>

<g id="Group ID: 3">
   <path id="Path17" stroke-width="0.7" stroke="#000000" stroke-opacity="1" fill="#000000" fill-opacity="1" fill-rule="evenodd" stroke-linecap="round" stroke-linejoin="round" d="M210.5,767.3 C208.2,773.2 205.5,779.9 203.8,781.6 203.7,781.7 203.3,782.2 202.9,782.1 202.7,782 202.4,781.7 202.3,781.5 201.9,780.8 201.3,765.3 201.3,765.3 201.5,765.3 203.3,764.7 205.3,764.8 206.1,764.9 206.7,765.1 207.5,765.4 209,766.1 209.8,766.8 210.5,767.3 Z " />
   <path id="Path18" stroke-width="0.7" stroke="#E5D4B8" stroke-opacity="1" fill="#E5D4B8" fill-opacity="1" fill-rule="evenodd" stroke-linecap="round" stroke-linejoin="round" d="M225.7,728 C225.7,728.4 225.6,728.9 225.5,729.3 225.4,729.8 225.1,730.3 225,730.7 224.8,731.1 224.6,731.7 224.4,732.1 224.3,732.5 224.1,733.1 223.9,733.5 223.7,733.9 223.5,734.4 223.4,734.8 223.4,734.8 222.3,737.6 221.2,740.3 221.2,740.3 215.5,755.3 210.7,767.4 210.2,767.1 209.5,766.5 208.2,765.8 208.2,765.8 207.2,765.3 206.1,765.1 205.6,765 204.7,764.8 203.3,765 202.7,765.1 202.1,765.2 201.2,765.4 201.2,763.7 200.2,739.6 200.2,731 200.2,728.2 200.3,727.9 200.5,725.3 201.3,725 202.8,724.6 204.7,724.5 205.9,724.4 207.9,724.3 210.6,724.6 211.6,724.7 216.2,725.2 220.7,726.3 220.7,726.3 223.5,727 225.7,728 Z " />
   <path id="Path19" stroke-width="0.7" stroke="#FFF505" stroke-opacity="1" fill="#FFF505" fill-opacity="1" fill-rule="evenodd" stroke-linecap="round" stroke-linejoin="round" d="M284.4,390.9 C284.4,390.9 280.2,415.6 278.8,423.9 278.8,423.9 268.8,481.8 267.6,488.2 267.6,488.2 244.6,620 225.9,727.8 225.2,727.6 223.7,727 221.4,726.4 221.2,726.3 219.6,725.9 218.7,725.7 218.7,725.7 214.6,724.8 210.5,724.4 206.5,724.1 203.4,724.2 200.6,725.1 202.1,714 202.6,711.2 204.9,697.4 204.9,697.4 214.8,640.5 215.9,634.2 216.9,628.3 230.2,550.9 236.5,515.2 243.3,476.3 252.7,424.6 259.8,385.8 259.8,385.8 277,389.4 284.4,390.9 Z " />
   <path id="Path20" stroke-width="0.7" stroke="#FF6161" stroke-opacity="1" fill="#FF6161" fill-opacity="1" fill-rule="evenodd" stroke-linecap="round" stroke-linejoin="round" d="M288.9,369.4 C290.1,360.9 289.8,359.7 284.1,357.3 279.7,355.3 269.3,355.1 266.8,356.9 265.3,358 262.6,367.6 262.5,372.4 262.5,372.4 287,377.2 287,377.2 287,377.2 288.9,369.4 288.9,369.4 Z " />
   <path id="Path21" stroke-width="0.7" stroke="#999999" stroke-opacity="1" fill="#999999" fill-opacity="1" fill-rule="evenodd" stroke-linecap="round" stroke-linejoin="round" d="M287,377.2 C287,377.2 284.5,390.7 284.5,390.7 273.5,388.3 260,385.5 260,385.5 260,385.5 262.3,372.3 262.3,372.3 262.3,372.3 287,377.2 287,377.2 Z " />
</g>

<g id="Group ID: 4">
   <path id="Path22" stroke-width="0.7" stroke="#000000" stroke-opacity="1" fill="#000000" fill-opacity="1" fill-rule="evenodd" stroke-linecap="round" stroke-linejoin="round" d="M239.6,90 C234.4,83.5 231.1,75.3 226.9,68.2 223.1,61.5 218.4,51.8 210.2,50.6 203.9,49.5 199.7,59.3 204.3,63.5 209,67.9 215.3,71.6 220.5,76.8 225.9,82.2 231.1,87.5 236.3,93 238.3,95.2 241.3,92.1 239.6,90 Z " />
   <path id="Path23" stroke-width="0.7" stroke="#000000" stroke-opacity="1" fill="#000000" fill-opacity="1" fill-rule="evenodd" stroke-linecap="round" stroke-linejoin="round" d="M188.3,106.6 C191.1,109.7 194.6,109.5 198.4,110 202,110.3 203.6,110.6 207.8,111.3 210.3,111.8 213,111.9 215.6,112.9 219.5,113.9 222.5,108 219.2,105.6 215.9,102.5 211.6,100.7 207.5,98.6 205,97.6 202.6,96.4 200.5,94.8 199.4,94.4 198.4,93.2 196.8,92.9 196.8,92.9 196.2,93 196.2,93 196.2,93 196.8,92.9 197.4,93.3 197.4,93.3 197.4,93.3 197.1,93.6 196.8,93.4 196.2,93 195.9,92.7 195.9,92.7 195.9,92.7 195.9,92.7 195.9,92.7 195.9,92.7 195.9,92.7 195.9,92.7 195.9,92.7 196.2,93 195.6,92.5 195.4,92.8 195.4,92.8 195.6,92.5 195.9,92.7 195.9,92.7 195.9,92.7 195.9,92.7 195.9,92.7 195.6,92.5 195.4,92.8 195.4,92.8 187.8,90.4 182.9,100.7 188.3,106.6 Z " />
   <path id="Path24" stroke-width="0.7" stroke="#000000" stroke-opacity="1" fill="#000000" fill-opacity="1" fill-rule="evenodd" stroke-linecap="round" stroke-linejoin="round" d="M256.5,86.8 C256.7,90.9 262.5,92.6 263.6,88.1 267.7,74.7 267.5,60.6 271.3,47.5 274.9,34.7 254.9,31.9 255.2,44.2 255.1,58.6 255.8,72.7 256.5,86.8 Z " />
   <path id="Path25" stroke-width="0.7" stroke="#000000" stroke-opacity="1" fill="#000000" fill-opacity="1" fill-rule="evenodd" stroke-linecap="round" stroke-linejoin="round" d="M669.9,519.3 C674.6,518.1 679.8,518.2 684.6,517.7 689.1,517.3 695.4,517.1 698,513 700,509.9 695.8,505.3 692.5,506.7 689,508.2 685.5,510.7 681.5,512.2 677.3,513.8 673.3,515.4 669.1,516.8 667.4,517.4 668.4,519.7 669.9,519.3 Z " />
   <path id="Path26" stroke-width="0.7" stroke="#000000" stroke-opacity="1" fill="#000000" fill-opacity="1" fill-rule="evenodd" stroke-linecap="round" stroke-linejoin="round" d="M685.4,463.8 C681.4,465.1 680.2,468.4 678.2,471.7 676.5,474.9 675.5,476.3 673.2,479.7 671.7,481.8 670.5,484.3 668.6,486.2 666,489.4 670.2,494.5 673.8,492.5 677.9,490.7 681.3,487.5 684.9,484.7 686.8,482.7 688.9,481.1 691.2,479.9 692,479 693.5,478.6 694.5,477.2 694.5,477.2 694.6,476.7 694.6,476.7 694.6,476.7 694.5,477.2 693.8,477.5 693.8,477.5 693.8,477.5 693.7,477.2 694,477 694.6,476.7 695,476.5 695,476.5 695,476.5 695,476.5 695,476.5 695,476.5 695,476.5 695,476.5 695,476.5 694.6,476.7 695.3,476.3 695.1,476 695.1,476 695.3,476.3 695,476.5 695,476.5 695,476.5 695,476.5 695,476.5 695.3,476.3 695.1,476 695.1,476 700.4,470 693.1,461.3 685.4,463.8 Z " />
   <path id="Path27" stroke-width="0.7" stroke="#000000" stroke-opacity="1" fill="#000000" fill-opacity="1" fill-rule="evenodd" stroke-linecap="round" stroke-linejoin="round" d="M695.2,546.4 C692.5,543.2 689,543.3 685.2,542.6 681.7,542.1 680,541.8 675.9,540.8 673.4,540.3 670.7,540 668.2,538.9 664.4,537.7 661.1,543.4 664.2,546.1 667.4,549.2 671.7,551.2 675.6,553.5 678.1,554.6 680.4,556 682.4,557.7 683.5,558.1 684.4,559.4 686.1,559.8 686.1,559.8 686.6,559.7 686.6,559.7 686.6,559.7 686.1,559.8 685.5,559.3 685.5,559.3 685.5,559.3 685.7,559 686,559.2 686.6,559.7 686.9,559.9 686.9,559.9 686.9,559.9 686.9,559.9 686.9,559.9 686.9,559.9 686.9,559.9 686.9,559.9 686.9,559.9 686.6,559.7 687.2,560.2 687.4,559.9 687.4,559.9 687.2,560.2 686.9,559.9 686.9,559.9 686.9,559.9 686.9,559.9 686.9,559.9 687.2,560.2 687.4,559.9 687.4,559.9 694.9,562.6 700.3,552.6 695.2,546.4 Z " />
<g id="Group ID: 5">
   <path id="Path28" stroke-width="0.7" stroke="#000000" stroke-opacity="1" fill="#000000" fill-opacity="1" fill-rule="evenodd" stroke-linecap="round" stroke-linejoin="round" d="M231.9,430.9 C224,433.1 215.1,432.8 206.9,433.8 199.2,434.6 188.5,434.9 184.1,442 180.6,447.3 187.8,455.1 193.5,452.6 199.4,450.1 205.3,445.8 212.2,443.1 219.4,440.4 226.2,437.7 233.4,435.2 236.2,434.2 234.5,430.2 231.9,430.9 Z " />
   <path id="Path29" stroke-width="0.7" stroke="#000000" stroke-opacity="1" fill="#000000" fill-opacity="1" fill-rule="evenodd" stroke-linecap="round" stroke-linejoin="round" d="M216.2,492.5 C220.2,491.1 221.4,487.8 223.4,484.5 225.1,481.4 226,480 228.4,476.5 229.8,474.4 231,471.9 232.9,470 235.5,466.8 231.3,461.6 227.7,463.7 223.6,465.5 220.2,468.7 216.6,471.6 214.7,473.5 212.6,475.2 210.3,476.4 209.5,477.3 208,477.7 207.1,479.1 207.1,479.1 206.9,479.7 206.9,479.7 206.9,479.7 207.1,479.1 207.7,478.8 207.7,478.8 207.7,478.8 207.9,479.1 207.6,479.3 206.9,479.7 206.6,479.8 206.6,479.8 206.6,479.8 206.6,479.8 206.6,479.8 206.6,479.8 206.6,479.8 206.6,479.8 206.6,479.8 206.9,479.7 206.3,480 206.5,480.4 206.5,480.4 206.3,480 206.6,479.8 206.6,479.8 206.6,479.8 206.6,479.8 206.6,479.8 206.3,480 206.5,480.4 206.5,480.4 201.2,486.4 208.6,495 216.2,492.5 Z " />
   <path id="Path30" stroke-width="0.7" stroke="#000000" stroke-opacity="1" fill="#000000" fill-opacity="1" fill-rule="evenodd" stroke-linecap="round" stroke-linejoin="round" d="M203.3,404.7 C206,407.9 209.5,407.8 213.4,408.5 216.9,408.9 218.6,409.3 222.7,410.2 225.1,410.8 227.9,411 230.4,412.1 234.3,413.3 237.5,407.5 234.3,404.9 231.1,401.7 226.9,399.8 222.9,397.5 220.4,396.4 218.1,395 216.1,393.4 215,392.9 214.1,391.7 212.4,391.3 212.4,391.3 211.9,391.4 211.9,391.4 211.9,391.4 212.4,391.3 213,391.8 213,391.8 213,391.8 212.7,392.1 212.5,391.9 211.9,391.4 211.6,391.2 211.6,391.2 211.6,391.2 211.6,391.2 211.6,391.2 211.6,391.2 211.6,391.2 211.6,391.2 211.6,391.2 211.9,391.4 211.3,390.9 211.1,391.2 211.1,391.2 211.3,390.9 211.6,391.2 211.6,391.2 211.6,391.2 211.6,391.2 211.6,391.2 211.3,390.9 211.1,391.2 211.1,391.2 203.5,388.5 198.2,398.5 203.3,404.7 Z " />
</g>

</g>

</g>

</svg>
